<svg width="73" height="49" viewBox="0 0 73 49" fill="none" xmlns="http://www.w3.org/2000/svg">
<path d="M31.7937 48C30.627 48.2333 29.8103 47.6733 29.3437 46.32C28.877 44.92 28.6203 42.8667 28.5737 40.16C28.4803 36.1933 28.3403 32.88 28.1537 30.22C28.0137 27.5133 27.7337 25.0867 27.3137 22.94C22.9737 24.9933 18.6803 26.8833 14.4337 28.61C10.2337 30.29 8.13367 31.1067 8.13367 31.06L8.27367 45.97C8.27367 46.67 7.85367 47.1133 7.01367 47.3C5.89367 47.5333 5.14701 46.9033 4.77367 45.41C4.44701 43.87 4.21367 41.4667 4.07367 38.2C3.98034 35.26 3.84034 33.1833 3.65367 31.97C2.34701 32.6233 1.22701 32.9267 0.293672 32.88C0.107005 32.5067 0.0136719 31.7367 0.0136719 30.57C0.387005 30.43 0.830339 30.2667 1.34367 30.08C1.90367 29.8933 2.30034 29.6833 2.53367 29.45C2.81367 29.17 2.95367 28.7733 2.95367 28.26C2.95367 25.9267 2.72034 22.3333 2.25367 17.48C1.74034 13.0933 1.48367 9.47666 1.48367 6.63L1.55367 3.41C1.69367 3.08333 1.85701 2.87333 2.04367 2.78C2.27701 2.68667 2.58034 2.64 2.95367 2.64C3.74701 2.64 4.14367 2.89667 4.14367 3.41L7.01367 28.05C8.32034 27.7233 10.4903 26.8833 13.5237 25.53C16.557 24.1767 21.2237 21.9833 27.5237 18.95L27.8037 3.41C27.8037 1.59 28.4803 0.679996 29.8337 0.679996C30.3937 0.679996 30.767 0.889996 30.9537 1.31C31.187 1.73 31.257 2.43 31.1637 3.41L31.0937 15.52C31.0937 19.6267 31.327 24.97 31.7937 31.55C31.9337 32.8567 32.0503 34.1167 32.1437 35.33C32.2837 36.4967 32.4003 37.6167 32.4937 38.69C32.7737 41.5833 32.9603 43.4267 33.0537 44.22C33.1937 44.9667 33.4037 45.6433 33.6837 46.25C33.4503 47.1833 32.8203 47.7667 31.7937 48ZM49.9275 45.2C49.0408 41.6533 48.3642 38.0833 47.8975 34.49C47.4308 30.85 47.0108 24.8767 46.6375 16.57C46.6375 16.01 46.8242 15.52 47.1975 15.1C47.6175 14.68 48.0842 14.47 48.5975 14.47H49.2275C49.4608 16.01 49.6242 18.4833 49.7175 21.89C49.7175 22.2633 49.7642 23.5233 49.8575 25.67C49.9508 27.77 50.1842 29.7533 50.5575 31.62C55.9708 31.1067 60.2875 30.0567 63.5075 28.47C66.7742 26.8833 68.4075 24.62 68.4075 21.68C68.4075 17.9933 66.7742 14.9833 63.5075 12.65C60.2408 10.3167 55.3175 9.15 48.7375 9.15C45.9842 9.15 43.6508 9.66333 41.7375 10.69C41.4108 10.83 41.1775 11.1333 41.0375 11.6C40.8975 12.02 40.7808 12.6267 40.6875 13.42C40.5942 14.26 40.4775 14.89 40.3375 15.31C40.1975 15.73 39.9408 15.94 39.5675 15.94C39.1475 15.94 38.8675 15.6367 38.7275 15.03C38.6342 14.3767 38.5875 12.9067 38.5875 10.62C38.5875 9.31333 39.4742 8.28666 41.2475 7.54C43.0208 6.79333 45.3075 6.42 48.1075 6.42C56.2742 6.42 62.3408 7.70333 66.3075 10.27C70.2742 12.8367 72.2575 16.78 72.2575 22.1C72.2575 24.9467 71.1142 27.3267 68.8275 29.24C66.5408 31.1533 63.7642 32.5767 60.4975 33.51C57.2308 34.3967 54.1042 34.84 51.1175 34.84C51.2108 35.4 51.3042 35.9133 51.3975 36.38C51.4908 36.8467 51.5608 37.2433 51.6075 37.57C52.2608 40.7433 52.5875 43.1933 52.5875 44.92C52.5875 45.9467 52.4475 46.7633 52.1675 47.37C51.9342 47.9767 51.3975 48.1867 50.5575 48L49.9275 45.2Z" fill="white"/>
</svg>
