<svg width="73" height="49" viewBox="0 0 73 49" fill="none" xmlns="http://www.w3.org/2000/svg">
<path d="M32.2937 48C31.127 48.2333 30.3103 47.6733 29.8437 46.32C29.377 44.92 29.1203 42.8667 29.0737 40.16C28.9803 36.1933 28.8403 32.88 28.6537 30.22C28.5137 27.5133 28.2337 25.0867 27.8137 22.94C23.4737 24.9933 19.1803 26.8833 14.9337 28.61C10.7337 30.29 8.63367 31.1067 8.63367 31.06L8.77367 45.97C8.77367 46.67 8.35367 47.1133 7.51367 47.3C6.39367 47.5333 5.64701 46.9033 5.27367 45.41C4.94701 43.87 4.71367 41.4667 4.57367 38.2C4.48034 35.26 4.34034 33.1833 4.15367 31.97C2.84701 32.6233 1.72701 32.9267 0.793672 32.88C0.607005 32.5067 0.513672 31.7367 0.513672 30.57C0.887005 30.43 1.33034 30.2667 1.84367 30.08C2.40367 29.8933 2.80034 29.6833 3.03367 29.45C3.31367 29.17 3.45367 28.7733 3.45367 28.26C3.45367 25.9267 3.22034 22.3333 2.75367 17.48C2.24034 13.0933 1.98367 9.47666 1.98367 6.63L2.05367 3.41C2.19367 3.08333 2.35701 2.87333 2.54367 2.78C2.77701 2.68667 3.08034 2.64 3.45367 2.64C4.24701 2.64 4.64367 2.89667 4.64367 3.41L7.51367 28.05C8.82034 27.7233 10.9903 26.8833 14.0237 25.53C17.057 24.1767 21.7237 21.9833 28.0237 18.95L28.3037 3.41C28.3037 1.59 28.9803 0.679996 30.3337 0.679996C30.8937 0.679996 31.267 0.889996 31.4537 1.31C31.687 1.73 31.757 2.43 31.6637 3.41L31.5937 15.52C31.5937 19.6267 31.827 24.97 32.2937 31.55C32.4337 32.8567 32.5503 34.1167 32.6437 35.33C32.7837 36.4967 32.9003 37.6167 32.9937 38.69C33.2737 41.5833 33.4603 43.4267 33.5537 44.22C33.6937 44.9667 33.9037 45.6433 34.1837 46.25C33.9503 47.1833 33.3203 47.7667 32.2937 48ZM50.4275 45.2C49.5408 41.6533 48.8642 38.0833 48.3975 34.49C47.9308 30.85 47.5108 24.8767 47.1375 16.57C47.1375 16.01 47.3242 15.52 47.6975 15.1C48.1175 14.68 48.5842 14.47 49.0975 14.47H49.7275C49.9608 16.01 50.1242 18.4833 50.2175 21.89C50.2175 22.2633 50.2642 23.5233 50.3575 25.67C50.4508 27.77 50.6842 29.7533 51.0575 31.62C56.4708 31.1067 60.7875 30.0567 64.0075 28.47C67.2742 26.8833 68.9075 24.62 68.9075 21.68C68.9075 17.9933 67.2742 14.9833 64.0075 12.65C60.7408 10.3167 55.8175 9.15 49.2375 9.15C46.4842 9.15 44.1508 9.66333 42.2375 10.69C41.9108 10.83 41.6775 11.1333 41.5375 11.6C41.3975 12.02 41.2808 12.6267 41.1875 13.42C41.0942 14.26 40.9775 14.89 40.8375 15.31C40.6975 15.73 40.4408 15.94 40.0675 15.94C39.6475 15.94 39.3675 15.6367 39.2275 15.03C39.1342 14.3767 39.0875 12.9067 39.0875 10.62C39.0875 9.31333 39.9742 8.28666 41.7475 7.54C43.5208 6.79333 45.8075 6.42 48.6075 6.42C56.7742 6.42 62.8408 7.70333 66.8075 10.27C70.7742 12.8367 72.7575 16.78 72.7575 22.1C72.7575 24.9467 71.6142 27.3267 69.3275 29.24C67.0408 31.1533 64.2642 32.5767 60.9975 33.51C57.7308 34.3967 54.6042 34.84 51.6175 34.84C51.7108 35.4 51.8042 35.9133 51.8975 36.38C51.9908 36.8467 52.0608 37.2433 52.1075 37.57C52.7608 40.7433 53.0875 43.1933 53.0875 44.92C53.0875 45.9467 52.9475 46.7633 52.6675 47.37C52.4342 47.9767 51.8975 48.1867 51.0575 48L50.4275 45.2Z" fill="#514848"/>
</svg>
